<svg width="201" height="199" viewBox="0 0 201 199" fill="none" xmlns="http://www.w3.org/2000/svg">
<path d="M198.331 29.5254L199.521 29.2389C201.166 31.2439 198.096 42.6869 197.511 45.4749C195.276 55.8399 192.921 66.1014 190.961 76.5244C187.316 72.9654 182.881 68.8444 179.511 65.1169C176.241 68.4684 161.976 83.3939 159.251 85.3209C146.406 99.4899 128.026 117.578 114.231 130.971C107.406 124.449 100.651 117.854 93.9662 111.187C81.7947 123.909 68.5692 136.76 56.0967 149.234C50.1007 155.23 40.4327 165.624 34.3307 171.029C29.3132 166.112 25.8162 162.714 21.7072 156.943C33.7427 144.142 46.8042 132.183 58.8522 119.359C59.9917 118.146 66.8742 110.786 67.8947 110.191C69.1517 108.693 70.6872 107.135 72.1182 105.787C79.5952 98.7444 86.6552 90.7854 94.1962 83.8639C100.566 89.4609 107.926 97.2199 114.021 103.333C120.056 96.7144 128.121 88.2959 134.691 82.2734C135.871 78.9709 160.576 56.3709 164.876 51.1789C162.891 48.8749 156.616 43.7929 153.686 40.9289C167.326 36.8709 184.286 32.9549 198.331 29.5254Z" fill="black"/>
<path d="M198.331 29.5254L199.521 29.2389C201.166 31.2439 198.096 42.6869 197.511 45.4749C195.276 55.8399 192.921 66.1014 190.961 76.5244C187.316 72.9654 182.881 68.8444 179.511 65.1169C176.241 68.4684 161.976 83.3939 159.251 85.3209C158.686 82.8064 161.706 83.1544 162.751 80.5764C159.776 78.2289 158.746 81.0024 154.166 80.6284C153.911 79.8634 153.826 79.4429 153.341 78.7799C150.696 80.8679 150.011 82.8664 146.741 84.1099L141.896 88.5544L141.441 88.1484C138.491 88.7009 132.706 98.7774 129.006 99.6274C126.341 98.8299 125.566 96.8874 123.981 94.4149C126.546 91.9294 134.211 85.1739 134.691 82.2734C135.871 78.9709 160.576 56.3709 164.876 51.1789C162.891 48.8749 156.616 43.7929 153.686 40.9289C167.326 36.8709 184.286 32.9549 198.331 29.5254Z" fill="black"/>
<path d="M185.996 44.1684C188.311 45.5089 193.506 46.0499 196.271 46.2339L197.511 45.4749C195.276 55.8399 192.921 66.1014 190.961 76.5244C187.316 72.9654 182.881 68.8444 179.511 65.1169C176.241 68.4684 161.976 83.3939 159.251 85.3209C158.686 82.8064 161.706 83.1544 162.751 80.5764C159.776 78.2289 158.746 81.0024 154.166 80.6284C153.911 79.8634 153.826 79.4429 153.341 78.7799C150.696 80.8679 150.011 82.8664 146.741 84.1099C150.111 80.0614 156.966 73.5409 160.916 69.5619L185.996 44.1684Z" fill="black"/>
<path d="M198.331 29.5254L199.521 29.2389C201.166 31.2439 198.096 42.6869 197.511 45.4749L196.271 46.2339C193.506 46.0499 188.311 45.5089 185.996 44.1684C189.871 40.3314 194.126 36.6669 197.841 32.7459C198.891 31.6354 198.546 30.7749 198.331 29.5254Z" fill="black"/>
<path d="M114.021 103.333C120.056 96.7144 128.121 88.2959 134.691 82.2734C134.211 85.1739 126.546 91.9294 123.981 94.4149C125.566 96.8874 126.341 98.8299 129.006 99.6274C132.706 98.7774 138.491 88.7009 141.441 88.1484L141.896 88.5544C136.016 95.2864 120.711 110.63 113.996 116.753C107.991 110.655 100.641 103.126 94.2862 97.5014C87.0877 104.222 80.6067 111.414 73.3642 117.97C75.6627 114.834 78.0017 112.631 80.7532 109.894C78.9427 106.975 78.1112 105.776 77.0542 102.454C74.9177 104.58 70.3997 109.749 67.8947 110.191C69.1517 108.693 70.6872 107.135 72.1182 105.787C79.5952 98.7444 86.6552 90.7854 94.1962 83.8639C100.566 89.4609 107.926 97.2199 114.021 103.333Z" fill="black"/>
<path d="M166.816 159.308C169.756 158.067 171.391 157.41 173.311 154.773C175.071 156.496 176.846 158.2 178.641 159.886C177.226 164.562 169.006 169.682 167.846 173.195C166.696 174.837 162.901 177.746 161.226 179.009C148.186 188.649 132.981 194.948 116.946 197.355C87.1067 201.931 63.4752 193.317 39.8967 175.946C45.2227 170.245 52.4352 163.062 58.0527 157.829C67.4377 157.598 77.2697 157.767 86.6892 157.798C87.2712 166.14 86.9087 178.796 87.0127 187.626L93.7962 188.328C93.7762 183.166 93.4112 162.481 94.1962 158.814C96.6812 157.074 119.401 156.721 122.001 158.6C123.586 162.591 122.696 179.932 122.996 186.142L129.756 184.903C129.636 176.592 129.461 166.043 129.896 157.864C136.576 157.369 151.426 157.474 158.196 157.872C158.396 161.149 158.326 165.186 158.346 168.532L164.216 163.321L165.146 163.15L166.816 159.308Z" fill="black"/>
<path d="M70.0942 59.6704C91.3662 44.3414 123.286 45.2349 141.291 65.1599C137.821 69.7654 130.971 76.0289 126.656 80.2429C122.896 83.9179 117.481 89.8179 113.731 92.9669C108.171 88.5099 98.7162 79.0424 93.8112 73.5824C89.7862 78.4664 81.9127 85.8974 77.1372 90.6819C72.9792 94.8479 66.1122 102.202 61.8947 105.906C58.2707 109.739 54.6127 113.539 50.9202 117.305C49.0197 109.038 48.3677 105.584 49.0127 97.1339L49.0327 96.9059C50.5877 80.9104 57.9857 69.6089 70.0942 59.6704Z" fill="black"/>
<path d="M49.0127 97.1339L49.0327 96.9059C50.5877 80.9104 57.9857 69.6089 70.0942 59.6704C71.9307 65.1764 79.8902 77.8514 83.6687 82.4779C85.6772 80.4254 90.8762 74.8759 92.9312 73.4914L93.8112 73.5824C89.7862 78.4664 81.9127 85.8974 77.1372 90.6819C72.9792 94.8479 66.1122 102.202 61.8947 105.906C58.2707 109.739 54.6127 113.539 50.9202 117.305C49.0197 109.038 48.3677 105.584 49.0127 97.1339Z" fill="black"/>
<path d="M49.0127 97.1339L50.0287 95.4884C52.8347 95.4149 61.6162 104.681 61.8947 105.906C58.2707 109.739 54.6127 113.539 50.9202 117.305C49.0197 109.038 48.3677 105.584 49.0127 97.1339Z" fill="black"/>
<path d="M37.5127 71.4399C31.1207 67.8059 24.5862 64.1104 18.4437 60.4174C14.8752 58.3139 10.6162 55.2044 14.2357 50.6504C17.9047 46.0344 22.8387 50.7309 26.5062 52.4734C29.8202 54.0479 40.8972 61.8434 44.0817 61.6399C45.7027 58.0414 49.9062 53.8874 52.6682 51.0894C52.8327 54.1209 55.5832 58.4869 57.2727 61.0544C55.3162 63.3914 53.1342 65.8829 51.3752 68.3469C39.5762 89.1149 39.0667 101.031 44.6902 123.666C42.7102 125.863 39.1427 129.118 36.9242 131.271C33.5152 123.026 31.7102 116.533 31.1802 107.672C26.7697 107.602 4.5147 108.945 2.0342 105.968C-8.4393 93.3999 24.6222 96.9119 31.0212 96.9054C31.3872 87.1034 33.8402 80.3274 37.5127 71.4399Z" fill="black"/>
<path d="M44.0817 61.6399C45.7027 58.0414 49.9062 53.8874 52.6682 51.0894C52.8327 54.1209 55.5832 58.4869 57.2727 61.0544C55.3162 63.3914 53.1342 65.8829 51.3752 68.3469C51.1342 68.3179 50.8017 68.1114 50.5552 67.9879C52.6902 64.5819 51.3022 65.0899 54.6962 62.8104C54.7142 60.4724 52.2172 56.6369 50.9557 54.4999C49.1352 56.0599 46.4212 59.6459 44.8192 61.6719L44.0817 61.6399Z" fill="black"/>
<path d="M96.4662 31.3219C96.6912 25.7634 95.2212 3.68839 99.0512 1.25739C111.591 -6.69711 108.176 25.4724 108.251 31.0409C119.751 32.8704 122.536 33.3884 133.451 37.7834C136.836 31.9609 150.211 2.64139 156.381 17.2154C157.961 20.9529 145.651 39.3659 143.161 43.3494C152.161 50.5674 157.091 51.1249 146.906 60.2234C133.226 49.2529 124.046 42.9894 105.636 41.5699C102.096 39.1729 88.4737 42.3764 84.9072 42.4079C83.1752 41.2654 81.4767 36.7104 82.4477 34.5239C84.3872 32.9144 88.8077 33.0809 91.3362 33.0369C92.8612 33.0104 93.4412 34.0179 94.2762 35.0099C94.4812 34.2204 94.5962 33.2569 94.7212 32.4344L96.4662 31.3219Z" fill="black"/>
<path d="M179.076 74.8279C183.221 78.6969 189.936 84.4879 193.621 88.3804L196.916 76.3764C201.686 94.5804 202.326 109.996 197.111 128.35C194.391 126.895 188.281 125.142 187.411 122.034L189.031 115.706C183.181 115.775 177.271 115.86 171.466 115.94C166.176 116.013 164.191 113.636 164.546 108.515C164.976 102.339 164.626 95.5074 165.366 89.4134C168.556 85.8504 175.696 77.8229 179.076 74.8279Z" fill="black"/>
<path d="M167.756 122.034C170.776 122.457 183.776 122.098 187.411 122.034C188.281 125.142 194.391 126.895 197.111 128.35C196.256 130.742 194.986 134.671 193.946 136.852C188.251 150.29 179.341 164.017 167.846 173.195C169.006 169.682 177.226 164.562 178.641 159.886C176.846 158.2 175.071 156.496 173.311 154.773C171.391 157.41 169.756 158.067 166.816 159.308L165.146 163.15L164.216 163.321L165.816 158.518C171.126 156.559 171.476 155.463 174.936 151.105C172.001 150.869 168.366 150.889 165.361 150.828C164.736 143.728 164.411 131.192 165.501 123.926C165.681 122.723 166.756 122.491 167.756 122.034Z" fill="black"/>
<path d="M167.756 122.034C170.776 122.457 183.776 122.098 187.411 122.034C188.281 125.142 194.391 126.895 197.111 128.35C196.256 130.742 194.986 134.671 193.946 136.852C188.131 136.557 172.221 125.48 167.341 123.852L167.116 123.779L167.756 122.034Z" fill="black"/>
<path d="M133.206 122.335C137.071 121.956 154.441 121.585 157.416 123.157C158.736 126.836 158.501 145.642 158.046 150.058C156.831 151.001 155.761 150.857 154.036 151.106C147.446 151.166 136.151 151.498 129.966 150.769C129.326 144.528 129.476 134.547 129.786 128.116C129.931 125.062 130.941 124.083 133.206 122.335Z" fill="black"/>
<path d="M61.8957 43.5234C61.7077 43.2809 61.5237 43.0354 61.3432 42.7869C58.8167 39.2444 46.8567 21.0564 48.0512 17.8534C53.8832 2.21337 68.5342 33.0359 71.0477 38.3504C77.2462 34.8769 89.6612 30.6829 96.4662 31.3219L94.7212 32.4344C94.5962 33.2569 94.4812 34.2204 94.2762 35.0099C93.4412 34.0179 92.8612 33.0104 91.3362 33.0369C88.8077 33.0809 84.3872 32.9144 82.4477 34.5239C81.4767 36.7104 83.1752 41.2654 84.9072 42.4079C88.4737 42.3764 102.096 39.1729 105.636 41.5699C85.2907 42.3649 71.9492 45.6604 57.2727 61.0544C55.5832 58.4869 52.8327 54.1209 52.6682 51.0894C55.0802 48.7364 59.1407 45.6979 61.8957 43.5234Z" fill="black"/>
<path d="M93.8212 121.96C97.2162 123.822 110.566 137.295 114.201 140.855C116.581 138.875 120.566 134.648 122.886 132.325C122.786 136.09 122.836 140.083 122.816 143.869C122.861 145.926 123.076 148.868 121.981 150.539C118.346 151.762 98.2512 151.574 94.3762 150.04C93.1312 147.726 93.7862 126.097 93.8212 121.96Z" fill="black"/>
<path d="M86.5862 128.689C87.5667 129.877 86.8327 147.88 86.7742 150.844C79.9192 150.819 72.7617 151.075 65.8467 151.126L65.2027 150.535C71.9747 143.315 79.6067 135.817 86.5862 128.689Z" fill="black"/>
<path d="M158.031 96.6774C158.531 98.2884 158.286 113.01 158.266 115.559C153.121 116.037 146.186 115.647 140.916 115.461C140.601 115.31 140.581 115.161 140.336 114.815C146.371 108.866 151.976 102.54 158.031 96.6774Z" fill="black"/>
</svg>
